<mxfile host="Electron" modified="2023-10-16T22:33:47.812Z" agent="Mozilla/5.0 (X11; Linux x86_64) AppleWebKit/537.36 (KHTML, like Gecko) draw.io/21.6.8 Chrome/114.0.5735.289 Electron/25.5.0 Safari/537.36" etag="O_r7WnUylzCfkZ4y4vGA" version="21.6.8" type="device">
  <diagram name="Page-1" id="K8Gs2WdqCzKi-wgiw_al">
    <mxGraphModel dx="1434" dy="846" grid="0" gridSize="10" guides="1" tooltips="1" connect="1" arrows="1" fold="1" page="1" pageScale="1" pageWidth="1500" pageHeight="4000" background="#ffffff" math="0" shadow="0">
      <root>
        <mxCell id="0" />
        <mxCell id="1" parent="0" />
        <mxCell id="e_bJL74etKxk8u_EB-q0-3" value="" style="shape=image;verticalLabelPosition=bottom;labelBackgroundColor=default;verticalAlign=top;aspect=fixed;imageAspect=0;image=https://blog.atori.xyz/images/wordpress/2020/11/e53d7725-firebase-cloud-messaging-3-vertical-lockup-light.png;imageBackground=#5D7F99;" vertex="1" parent="1">
          <mxGeometry x="814" y="216.56" width="274" height="190.89" as="geometry" />
        </mxCell>
        <mxCell id="e_bJL74etKxk8u_EB-q0-5" value="" style="sketch=0;outlineConnect=0;fontColor=#232F3E;gradientColor=none;fillColor=#232F3D;strokeColor=none;dashed=0;verticalLabelPosition=bottom;verticalAlign=top;align=center;html=1;fontSize=12;fontStyle=0;aspect=fixed;pointerEvents=1;shape=mxgraph.aws4.servers;" vertex="1" parent="1">
          <mxGeometry x="289" y="255.01" width="110" height="110" as="geometry" />
        </mxCell>
        <mxCell id="e_bJL74etKxk8u_EB-q0-6" value="&lt;p style=&quot;line-height: 190%;&quot;&gt;&lt;font style=&quot;font-size: 23px;&quot; color=&quot;#000000&quot;&gt;APP SERVER&lt;/font&gt;&lt;/p&gt;" style="text;html=1;align=center;verticalAlign=middle;resizable=0;points=[];autosize=1;strokeColor=none;fillColor=none;" vertex="1" parent="1">
          <mxGeometry x="262" y="362.01" width="164" height="63" as="geometry" />
        </mxCell>
        <mxCell id="e_bJL74etKxk8u_EB-q0-7" value="" style="shape=image;verticalLabelPosition=bottom;labelBackgroundColor=default;verticalAlign=top;aspect=fixed;imageAspect=0;image=https://www.pngitem.com/pimgs/m/424-4241955_golang-gopher-png-transparent-cartoons-gophers-golang-png.png;" vertex="1" parent="1">
          <mxGeometry x="546.64" y="42.15" width="104.71" height="117.98" as="geometry" />
        </mxCell>
        <mxCell id="e_bJL74etKxk8u_EB-q0-13" value="" style="html=1;whiteSpace=wrap;aspect=fixed;shape=isoRectangle;fillColor=#232F3D;" vertex="1" parent="1">
          <mxGeometry x="544.96" y="321" width="108.08" height="64.85" as="geometry" />
        </mxCell>
        <mxCell id="e_bJL74etKxk8u_EB-q0-15" value="" style="shape=curlyBracket;whiteSpace=wrap;html=1;rounded=1;labelPosition=left;verticalLabelPosition=middle;align=right;verticalAlign=middle;fillColor=#000000;strokeColor=#000000;" vertex="1" parent="1">
          <mxGeometry x="418" y="199.01" width="37" height="226" as="geometry" />
        </mxCell>
        <mxCell id="e_bJL74etKxk8u_EB-q0-16" value="" style="html=1;whiteSpace=wrap;aspect=fixed;shape=isoRectangle;fillColor=#232F3D;" vertex="1" parent="1">
          <mxGeometry x="544.96" y="247.99999999999997" width="108.08" height="64.85" as="geometry" />
        </mxCell>
        <mxCell id="e_bJL74etKxk8u_EB-q0-17" value="" style="html=1;whiteSpace=wrap;aspect=fixed;shape=isoRectangle;fillColor=#232F3D;" vertex="1" parent="1">
          <mxGeometry x="544.9499999999999" y="174.99999999999997" width="108.08" height="64.85" as="geometry" />
        </mxCell>
        <mxCell id="e_bJL74etKxk8u_EB-q0-19" value="&lt;p style=&quot;line-height: 190%;&quot;&gt;&lt;font style=&quot;font-size: 23px;&quot; color=&quot;#000000&quot;&gt;..........&lt;/font&gt;&lt;/p&gt;" style="text;html=1;align=center;verticalAlign=middle;resizable=0;points=[];autosize=1;strokeColor=none;fillColor=none;" vertex="1" parent="1">
          <mxGeometry x="557.99" y="384" width="82" height="63" as="geometry" />
        </mxCell>
        <mxCell id="e_bJL74etKxk8u_EB-q0-20" value="" style="shape=curlyBracket;whiteSpace=wrap;html=1;rounded=1;labelPosition=left;verticalLabelPosition=middle;align=right;verticalAlign=middle;fillColor=#000000;strokeColor=#000000;flipV=1;flipH=1;" vertex="1" parent="1">
          <mxGeometry x="750" y="199.01" width="37" height="226" as="geometry" />
        </mxCell>
        <mxCell id="e_bJL74etKxk8u_EB-q0-21" value="Goroutines" style="text;whiteSpace=wrap;fontColor=#000000;fontSize=25;" vertex="1" parent="1">
          <mxGeometry x="535" y="431" width="140" height="45" as="geometry" />
        </mxCell>
      </root>
    </mxGraphModel>
  </diagram>
</mxfile>
